<svg xmlns="http://www.w3.org/2000/svg" viewBox="0 0 256 256" role="img" aria-label="rbnb logo">
  <rect width="256" height="256" rx="56" fill="#ffffff"/>
  <path d="M128 38 L52 114 V206 H96 V154 H160 V206 H204 V114 Z" fill="none" stroke="#0f7abf" stroke-width="14" stroke-linecap="round" stroke-linejoin="round"/>
  <path d="M74 142 C92 126, 116 126, 128 140 C140 126, 164 126, 182 142 C170 156, 154 170, 128 186 C102 170, 86 156, 74 142 Z" fill="#0f7abf"/>
  <path d="M128 140 C140 126, 164 126, 182 142 C170 156, 154 170, 128 186" fill="none" stroke="#f28c18" stroke-width="14" stroke-linecap="round" stroke-linejoin="round"/>
  <path d="M74 142 C86 156, 102 170, 128 186" fill="none" stroke="#0f7abf" stroke-width="14" stroke-linecap="round" stroke-linejoin="round"/>
  <circle cx="106" cy="198" r="10" fill="#f28c18"/>
  <circle cx="126" cy="204" r="10" fill="#f28c18"/>
  <circle cx="146" cy="198" r="10" fill="#0f7abf"/>
  <rect x="108" y="86" width="18" height="18" rx="3" fill="#0f7abf"/>
  <rect x="130" y="86" width="18" height="18" rx="3" fill="#f28c18"/>
  <rect x="108" y="108" width="18" height="18" rx="3" fill="#f28c18"/>
  <rect x="130" y="108" width="18" height="18" rx="3" fill="#0f7abf"/>
</svg>
